HIERARCHY
ROOT Hips
{
	OFFSET 24.400370 100.070396 -93.787987
	CHANNELS 6 Xposition Yposition Zposition Zrotation Yrotation Xrotation 
	JOINT LeftUpLeg
	{
		OFFSET 0.103456 1.857829 10.548504
		CHANNELS 3 Zrotation Yrotation Xrotation
		JOINT LeftLeg
		{
			OFFSET 43.500000 -0.000031 -0.000008
			CHANNELS 3 Zrotation Yrotation Xrotation
			JOINT LeftFoot
			{
				OFFSET 42.372196 0.000008 0.000000
				CHANNELS 3 Zrotation Yrotation Xrotation
				JOINT LeftToe
				{
					OFFSET 17.299999 -0.000000 0.000004
					CHANNELS 3 Zrotation Yrotation Xrotation
					End Site
					{
						OFFSET 0.000000 0.000000 0.000000
					}
				}
			}
		}
	}
	JOINT RightUpLeg
	{
		OFFSET 0.103462 1.857831 -10.548504
		CHANNELS 3 Zrotation Yrotation Xrotation
		JOINT RightLeg
		{
			OFFSET 43.500046 -0.000031 0.000010
			CHANNELS 3 Zrotation Yrotation Xrotation
			JOINT RightFoot
			{
				OFFSET 42.372257 -0.000011 0.000010
				CHANNELS 3 Zrotation Yrotation Xrotation
				JOINT RightToe
				{
					OFFSET 17.299994 -0.000005 0.000006
					CHANNELS 3 Zrotation Yrotation Xrotation
					End Site
					{
						OFFSET 0.000000 0.000000 0.000000
					}
				}
			}
		}
	}
	JOINT Spine
	{
		OFFSET 6.901968 -2.603734 0.000000
		CHANNELS 3 Zrotation Yrotation Xrotation
		JOINT Spine1
		{
			OFFSET 12.588100 0.000000 -0.000001
			CHANNELS 3 Zrotation Yrotation Xrotation
			JOINT Spine2
			{
				OFFSET 12.343199 0.000008 0.000000
				CHANNELS 3 Zrotation Yrotation Xrotation
				JOINT Neck
				{
					OFFSET 25.832893 -0.000008 0.000001
					CHANNELS 3 Zrotation Yrotation Xrotation
					JOINT Head
					{
						OFFSET 11.766606 0.000005 0.000002
						CHANNELS 3 Zrotation Yrotation Xrotation
						End Site
						{
							OFFSET 0.000000 0.000000 0.000000
						}
					}
				}
				JOINT LeftShoulder
				{
					OFFSET 19.745907 -1.480371 6.000105
					CHANNELS 3 Zrotation Yrotation Xrotation
					JOINT LeftArm
					{
						OFFSET 11.284126 -0.000008 -0.000019
						CHANNELS 3 Zrotation Yrotation Xrotation
						JOINT LeftForeArm
						{
							OFFSET 33.000046 0.000003 0.000033
							CHANNELS 3 Zrotation Yrotation Xrotation
							JOINT LeftHand
							{
								OFFSET 25.200008 0.000013 -0.000009
								CHANNELS 3 Zrotation Yrotation Xrotation
								End Site
								{
									OFFSET 0.000000 0.000000 0.000000
								}
							}
						}
					}
				}
				JOINT RightShoulder
				{
					OFFSET 19.746096 -1.480375 -6.000072
					CHANNELS 3 Zrotation Yrotation Xrotation
					JOINT RightArm
					{
						OFFSET 11.284140 -0.000012 -0.000021
						CHANNELS 3 Zrotation Yrotation Xrotation
						JOINT RightForeArm
						{
							OFFSET 33.000088 0.000010 0.000018
							CHANNELS 3 Zrotation Yrotation Xrotation
							JOINT RightHand
							{
								OFFSET 25.199780 0.000144 0.000414
								CHANNELS 3 Zrotation Yrotation Xrotation
								End Site
								{
									OFFSET 0.000000 0.000000 0.000000
								}
							}
						}
					}
				}
			}
		}
	}
}
MOTION
Frames: 12
Frame Time: 0.033333
-200.882004 97.354584 -90.191162 81.213920 8.325856 172.212401 153.978815 -4.245102 171.809188 -39.101371 5.103025 3.475829 83.074006 -2.397974 0.460174 21.454548 0.003091 -0.000000 161.171059 -4.902603 -174.146219 -117.848193 -4.117816 14.496059 99.053213 -9.228516 1.538985 21.454551 -0.003108 -0.000018 6.744641 0.360648 -1.041084 3.469738 0.751839 -2.071086 3.151831 0.739459 -2.075584 -15.917809 -9.064477 7.695461 9.593041 5.341883 1.011979 -155.079404 -72.498565 -26.986426 -3.748479 49.518144 24.739353 -114.389611 -1.066865 3.449673 -6.494495 -5.887348 44.578100 -163.585476 78.299048 18.183610 36.958338 -37.681023 -42.232057 -122.125900 -1.033699 -3.673252 -7.256906 18.063390 -34.366322 
-193.678101 95.051971 -89.090248 80.279270 7.290464 172.304991 149.398736 -2.319398 177.051836 -30.992158 3.254338 5.180536 85.940152 -4.546103 -4.786577 21.454555 0.003093 0.000002 168.862507 -3.806395 -173.938403 -108.138103 -4.581316 15.114271 99.323033 -9.587343 2.142961 21.454562 -0.003107 -0.000017 6.383471 -0.098477 -0.089961 2.754244 -0.194880 -0.182191 2.436151 -0.195840 -0.181009 -17.022882 -8.395708 5.082832 12.101221 6.175282 -0.994927 -158.181799 -72.048735 -23.802612 13.791542 49.289920 33.328099 -111.692403 -1.463291 3.362834 -7.090527 -9.587909 45.146335 -167.351710 77.592738 14.346117 32.235276 -39.828879 -38.017041 -127.478500 -1.123921 -3.876305 -10.439520 19.535598 -37.101372 
-186.312805 92.051666 -87.644203 80.659514 7.580412 172.396502 146.796994 -2.186296 179.077083 -28.810004 2.617281 3.817028 86.768838 -3.653145 -5.364539 21.454557 0.003089 -0.000002 174.795469 -4.655900 -174.790046 -98.216761 -4.704996 13.552390 98.720112 -8.601312 1.819126 21.454565 -0.003106 -0.000018 6.418827 -0.177640 0.758859 2.822380 -0.373414 1.513254 2.504395 -0.364132 1.515484 -17.454024 -10.351001 3.879829 11.482409 7.980646 -3.418389 -164.196122 -74.308428 -17.594386 23.389974 50.241468 35.338350 -106.881997 -1.539681 3.160371 -2.817746 -13.308611 40.295138 -168.985697 76.612504 12.677570 26.876666 -41.439246 -33.289871 -127.060001 -1.376973 -3.843003 -12.592129 22.249983 -38.423653 
-179.813400 88.914230 -86.265503 81.457355 6.767900 173.234689 144.066093 -1.061495 176.981444 -34.287130 3.321670 3.838901 80.084180 -3.381198 -2.607129 21.454551 0.003090 0.000000 175.869954 -5.141404 -176.043932 -91.835076 -4.305724 12.624409 96.387712 -7.838575 3.876104 21.454543 -0.003110 -0.000020 6.600449 -0.346465 0.880891 3.182679 -0.716671 1.752117 2.864697 -0.705941 1.756411 -17.599277 -11.575019 3.753367 10.944057 9.233052 -4.434363 -168.821294 -76.011324 -12.850782 18.282890 51.135683 28.192663 -101.274801 -1.888661 2.938146 1.671752 -12.974183 36.100285 -169.149403 75.970753 12.509171 22.393810 -44.553010 -29.613860 -121.604592 -0.925021 -3.659775 -9.856412 18.372953 -39.799191 
-173.739899 84.883621 -85.317101 81.992016 4.344000 174.539897 140.408609 3.216599 175.143126 -49.441403 5.821306 3.055771 86.194535 -1.043165 6.063949 21.454548 0.003091 -0.000000 171.069423 -2.832595 -175.276683 -91.941716 -4.368335 14.249011 96.873454 -8.844150 4.926000 21.454551 -0.003109 -0.000017 6.742090 -0.866050 0.167142 3.469411 -1.736698 0.308658 3.151143 -1.734665 0.319144 -16.907466 -10.004678 3.940726 8.481620 8.155470 -3.377051 -172.856583 -75.683680 -8.719037 5.503234 49.027388 14.930874 -98.657745 -1.824340 2.817596 4.297660 -10.525779 38.413001 -174.761509 75.368993 6.761148 19.390564 -48.139061 -25.620798 -112.301902 -0.612282 -3.293435 -6.535672 15.801122 -41.293425 
-167.750305 81.970299 -84.807449 82.132533 -0.017181 175.510890 139.925578 8.641006 174.826287 -57.892765 6.215912 0.808364 93.147279 0.058531 5.764040 21.454551 0.003092 -0.000000 160.778350 2.619904 -174.951047 -95.618639 -4.545669 14.351078 96.869670 -9.034425 3.721947 21.454551 -0.003106 -0.000017 6.983491 -1.953042 -0.811685 3.985005 -3.877350 -1.690381 3.666257 -3.887351 -1.666906 -19.645622 -7.557428 4.305650 8.821630 5.955034 -1.548737 -176.915601 -73.615362 -4.532517 -11.630257 41.940411 -0.280907 -96.549546 -1.952366 2.732821 8.428739 -10.410480 36.622539 -175.445512 74.782122 6.053571 14.589475 -51.919830 -21.924139 -98.506532 1.063233 -2.802102 -4.965983 16.201050 -41.617002 
-161.314194 80.729767 -83.836098 83.450643 -1.376874 174.312998 144.373315 9.403902 175.013079 -61.268122 5.194870 -0.312315 99.437678 0.499481 5.711119 21.454553 0.003091 -0.000000 149.703212 3.074402 -177.798212 -97.825835 -4.116479 12.510980 96.143553 -7.813429 3.928769 21.454562 -0.003110 -0.000017 7.421642 -2.356290 -1.271619 4.888276 -4.657236 -2.643155 4.569383 -4.672967 -2.614943 -19.908927 -5.400237 4.699349 7.329219 5.412115 0.027455 174.500719 -74.798214 4.244292 -24.356509 38.282749 -13.080699 -94.870692 -2.266388 2.680066 6.083771 -12.329780 34.389606 -174.009997 73.796588 7.515158 12.155121 -51.762210 -24.694293 -85.014422 5.759728 -2.528109 -2.976587 16.596520 -34.302989 
-154.585800 80.535759 -82.760010 83.455855 -1.737768 173.000195 149.837248 8.486607 172.943054 -60.791327 5.765934 0.479384 103.967015 -0.252647 5.734518 21.454550 0.003091 0.000000 136.939118 2.150299 -179.722945 -99.866320 -3.663497 10.527288 94.770213 -6.479159 4.274014 21.454563 -0.003103 -0.000016 7.411840 -2.367785 -1.765673 4.888815 -4.659504 -3.632145 4.570252 -4.681199 -3.603929 -20.667022 -4.627839 5.921746 8.003375 4.039775 1.738711 166.684592 -76.711569 12.164337 -33.433250 35.766856 -23.646156 -95.273755 -2.317327 2.701556 5.239357 -14.041619 35.766207 -172.159508 73.704278 9.414323 16.533917 -48.574588 -32.280796 -79.538857 8.485840 -2.478662 0.310184 16.904776 -27.313237 
-147.499802 81.897057 -81.275139 82.748787 0.561837 172.509705 157.134485 5.449006 171.362193 -56.012421 7.725253 2.331372 105.519797 -1.568351 5.413144 21.454555 0.003094 0.000000 125.704591 -0.454300 -178.131047 -102.209792 -3.525885 10.160017 93.766046 -6.374546 3.239519 21.454557 -0.003108 -0.000018 7.244758 -1.531178 -2.449003 4.542434 -2.965955 -4.957384 4.225163 -2.995667 -4.939429 -20.431997 -6.118198 8.750537 6.636907 3.916955 3.325543 165.984580 -77.864525 12.829237 -38.926679 33.609701 -30.258394 -97.730677 -2.003729 2.788925 5.036862 -14.076580 33.290270 -169.466911 74.470160 12.181059 24.598038 -43.526808 -36.755574 -81.832374 7.067481 -2.479606 -1.043263 17.432470 -30.499315 
-139.715302 84.875237 -79.572723 83.462193 5.090805 172.589291 167.542245 1.009003 175.081968 -47.970782 6.492148 2.306179 101.337509 -1.369183 4.786796 21.454545 0.003090 -0.000000 118.911121 -2.930297 -174.565524 -105.837599 -3.384026 10.206861 91.406147 -6.477655 2.692682 21.454558 -0.003105 -0.000018 7.390192 -0.223316 -3.159966 4.776397 -0.317090 -6.326389 4.460396 -0.355075 -6.324365 -19.143413 -6.489803 11.310599 6.583745 1.603887 5.865731 168.690919 -80.663837 9.966958 -40.853588 34.809909 -32.525767 -101.962601 -1.183764 2.919413 5.398392 -14.790636 28.850784 -164.212474 76.820299 17.554334 31.353529 -39.157113 -39.369337 -86.579280 4.172757 -2.486509 0.639118 18.426522 -26.309014 
-131.826706 88.593323 -77.933739 84.351962 9.411701 172.812693 176.322030 -3.731201 177.449394 -40.924718 4.524685 1.547620 89.633112 -0.261150 5.361529 21.454562 0.003095 -0.000000 114.774226 -4.414794 -171.882981 -111.996914 -3.259548 10.104436 91.387241 -6.390699 2.844142 21.454557 -0.003108 -0.000017 7.519921 1.011070 -3.724978 4.957505 2.179576 -7.404804 4.642038 2.135084 -7.417730 -16.539383 -8.007914 13.866034 5.597819 0.700298 7.719188 179.035104 -82.220574 -0.561916 -40.697365 36.653889 -30.773568 -106.269513 -0.598531 3.068107 4.751979 -12.959416 27.294315 -159.984313 79.620547 21.835548 37.150516 -35.394918 -41.947566 -90.624050 1.885498 -2.506626 -0.355047 19.648542 -24.121252 
-124.286003 92.603432 -76.554283 84.922522 12.153700 173.069193 179.177281 -7.948105 173.503006 -40.260335 4.909664 3.845484 70.455566 -1.038018 5.207147 21.454550 0.003092 0.000001 113.074014 -5.134201 -170.779017 -118.675684 -3.223063 10.155800 92.321775 -6.527826 1.962775 21.454550 -0.003109 -0.000018 7.590557 1.737326 -3.967251 5.045750 3.644698 -7.859333 4.730214 3.597455 -7.881015 -14.666291 -9.027598 15.412487 5.702560 0.351267 8.837064 -164.148598 -81.472115 -17.597158 -40.465261 37.250527 -25.185838 -110.112499 -0.268800 3.212032 4.687594 -11.148693 27.537202 -160.319880 80.561412 21.482145 40.980264 -31.884911 -44.194275 -94.428602 1.368427 -2.640717 -0.771950 19.035290 -26.292146 
